#N canvas 324 12 1296 881 10;
#X obj 96 334 dac~;
#X obj 377 48 list trim;
#X obj 373 10 receive fromGUI;
#X obj 819 532 send toGUI;
#X obj 163 254 *~;
#X obj 214 209 route /myVolSlider;
#X obj 398 165 + 1;
#X obj 88 119 osc~ 3000;
#X obj 560 685 + 1;
#X obj 524 713 mod 60;
#X obj 440 685 + 1;
#X obj 404 713 mod 60;
#X obj 320 685 + 1;
#X obj 284 713 mod 60;
#X obj 284 596 metro 3.6e+006;
#X obj 404 596 metro 60000;
#X obj 524 596 metro 1000;
#X msg 92 533 0;
#X text 531 573 SECONDS;
#X text 411 573 MINUTES;
#X text 291 573 HOURS;
#X obj 255 516 trigger b f f f;
#X obj 524 685 f;
#X obj 404 685 f;
#X obj 284 685 f;
#X text 531 613 1 bang per s.;
#X text 412 613 1 bang per m.;
#X text 291 613 1 bang per h.;
#X text 291 623 i.e. 1 bang every;
#X text 412 623 i.e. 1 bang every;
#X text 412 633 60'000 ms.;
#X text 291 633 3'600'000 ms.;
#X text 531 623 i.e. 1 bang every;
#X obj 92 628 +;
#X text 96 559 "Reset to 0" function/trick.;
#X text 96 549 "Start at 0" \, and/or;
#X text 531 633 1'000 ms.;
#X obj 256 452 route /myTimerToggle;
#X msg 72 822 list /myHoursLabel \$1;
#X msg 496 824 list /mySecondsLabel \$1;
#X msg 302 825 list /myMinutesLabel \$1;
#X msg 565 254 list /myMainFreqLabel \$1;
#X obj 396 105 route /myMainFreqKnob;
#X msg 556 310 list /myMainFreqKnob \$1;
#X obj 516 39 route /myLowRangeSlider;
#X obj 518 73 route /myHighRangeSlider;
#X msg 566 419 list /myHighRangeLabel \$1;
#X msg 552 369 list /myLowRangeLabel \$1;
#X obj 34 7 route /myDACToggle;
#X obj 41 40 tgl 15 0 empty empty empty 17 7 0 10 -262144 -1 -1 0 1
;
#X msg 1170 9 \; pd dsp \$1;
#X obj 1170 53 adc~ 0;
#X obj 289 83 * 30;
#X obj 479 234 * 10;
#X obj 458 262 - 1;
#X obj 420 225 + 1;
#X obj 459 443 - 1;
#X obj 421 406 + 1;
#X obj 480 415 * 5;
#X obj 190 304 route /mySetupButton;
#X obj 564 109 route /myMinusButton;
#X obj 617 146 route /myPlusButton;
#X obj 627 738 makefilename %02d;
#X obj 403 766 makefilename %02d;
#X obj 176 788 makefilename %02d;
#X obj 546 200 f;
#X obj 570 146 bng 15 250 50 0 empty empty empty 17 7 0 10 -262144
-1 -1;
#X obj 79 219 *;
#X obj 624 200 f;
#X obj 663 174 bng 15 250 50 0 empty empty empty 17 7 0 10 -262144
-1 -1;
#X msg 420 342 99;
#X text 89 497 TIMER;
#X obj 966 309 0;
#X msg 953 367 list /myDACToggle \$1;
#X obj 967 272 bng 15 250 50 0 empty empty empty 17 7 0 10 -262144
-1 -1;
#X obj 865 268 *;
#X obj 813 244 bng 15 250 50 0 empty empty empty 17 7 0 10 -262144
-1 -1;
#X obj 819 354 *~;
#X obj 859 308 osc~;
#X obj 860 222 route /myStopButton;
#X obj 806 266 6000;
#X msg 954 432 list /myTimerToggle \$1;
#X obj 591 226 -;
#X obj 673 228 +;
#X connect 1 0 5 0;
#X connect 1 0 37 0;
#X connect 1 0 42 0;
#X connect 1 0 44 0;
#X connect 1 0 45 0;
#X connect 1 0 48 0;
#X connect 1 0 59 0;
#X connect 1 0 60 0;
#X connect 1 0 61 0;
#X connect 1 0 79 0;
#X connect 2 0 1 0;
#X connect 4 0 0 0;
#X connect 4 0 0 1;
#X connect 5 0 67 1;
#X connect 6 0 41 0;
#X connect 6 0 52 0;
#X connect 7 0 4 0;
#X connect 8 0 22 1;
#X connect 9 0 62 0;
#X connect 10 0 23 1;
#X connect 11 0 63 0;
#X connect 12 0 24 1;
#X connect 13 0 64 0;
#X connect 14 0 24 0;
#X connect 15 0 23 0;
#X connect 16 0 22 0;
#X connect 17 0 33 0;
#X connect 21 0 17 0;
#X connect 21 1 14 0;
#X connect 21 2 15 0;
#X connect 21 3 16 0;
#X connect 22 0 8 0;
#X connect 22 0 9 0;
#X connect 23 0 10 0;
#X connect 23 0 11 0;
#X connect 24 0 12 0;
#X connect 24 0 13 0;
#X connect 33 0 22 0;
#X connect 33 0 23 0;
#X connect 33 0 24 0;
#X connect 37 0 21 0;
#X connect 38 0 3 0;
#X connect 39 0 3 0;
#X connect 40 0 3 0;
#X connect 41 0 3 0;
#X connect 42 0 6 0;
#X connect 42 0 65 1;
#X connect 42 0 68 1;
#X connect 43 0 3 0;
#X connect 44 0 55 0;
#X connect 45 0 57 0;
#X connect 46 0 3 0;
#X connect 47 0 3 0;
#X connect 48 0 49 0;
#X connect 49 0 67 0;
#X connect 52 0 7 0;
#X connect 53 0 47 0;
#X connect 53 0 54 0;
#X connect 54 0 43 0;
#X connect 55 0 53 0;
#X connect 56 0 43 0;
#X connect 57 0 58 0;
#X connect 58 0 56 0;
#X connect 58 0 46 0;
#X connect 59 0 70 0;
#X connect 60 0 66 0;
#X connect 60 0 82 1;
#X connect 61 0 69 0;
#X connect 61 0 83 1;
#X connect 62 0 39 0;
#X connect 63 0 40 0;
#X connect 64 0 38 0;
#X connect 65 0 82 0;
#X connect 66 0 65 0;
#X connect 67 0 4 1;
#X connect 68 0 83 0;
#X connect 69 0 68 0;
#X connect 70 0 43 0;
#X connect 72 0 73 0;
#X connect 72 0 81 0;
#X connect 73 0 3 0;
#X connect 74 0 72 0;
#X connect 75 0 78 0;
#X connect 76 0 80 0;
#X connect 77 0 0 0;
#X connect 77 0 0 1;
#X connect 78 0 77 1;
#X connect 79 0 75 1;
#X connect 79 0 76 0;
#X connect 79 0 74 0;
#X connect 79 0 77 0;
#X connect 80 0 75 0;
#X connect 81 0 3 0;
#X connect 82 0 43 0;
#X connect 83 0 43 0;
